<svg xmlns="http://www.w3.org/2000/svg" width="444" height="444" viewBox="0 0 444 444"><rect width="100%" height="100%" fill="#DDDDDD"/><path fill="#999999" d="M96.555 227.265h12.98v-13.95q0-1.98.26-4.37zm19.32 0h5.37v4.22q0 .59-.38 1.02-.39.43-1.1.43h-3.89v10.41h-6.34v-10.41h-18q-.74 0-1.3-.46t-.7-1.14l-.77-3.68 20.21-27h6.9zm14.9 0h12.98v-13.95q0-1.98.26-4.37zm19.32 0h5.37v4.22q0 .59-.38 1.02-.39.43-1.1.43h-3.89v10.41h-6.34v-10.41h-18q-.74 0-1.3-.46t-.7-1.14l-.77-3.68 20.21-27h6.9zm14.9 0h12.98v-13.95q0-1.98.26-4.37zm19.32 0h5.37v4.22q0 .59-.38 1.02-.39.43-1.1.43h-3.89v10.41h-6.34v-10.41h-18q-.74 0-1.3-.46t-.7-1.14l-.77-3.68 20.21-27h6.9zm52.24 6.32-3.86 3.8-10-10-10.09 10.06-3.86-3.81 10.08-10.11-9.61-9.62 3.83-3.84 9.62 9.62 9.56-9.56 3.89 3.84-9.59 9.59zm25.55-6.32h12.98v-13.95q0-1.98.27-4.37zm19.32 0h5.37v4.22q0 .59-.38 1.02t-1.09.43h-3.9v10.41h-6.34v-10.41h-17.99q-.74 0-1.3-.46t-.71-1.14l-.77-3.68 20.21-27h6.9zm14.9 0h12.98v-13.95q0-1.98.27-4.37zm19.32 0h5.37v4.22q0 .59-.38 1.02t-1.09.43h-3.9v10.41h-6.34v-10.41h-17.99q-.74 0-1.3-.46t-.71-1.14l-.77-3.68 20.21-27h6.9zm14.9 0h12.98v-13.95q0-1.98.27-4.37zm19.32 0h5.37v4.22q0 .59-.38 1.02t-1.09.43h-3.9v10.41h-6.34v-10.41h-17.99q-.74 0-1.3-.46t-.71-1.14l-.77-3.68 20.21-27h6.9z"/></svg>